<?xml version="1.0" encoding="utf-8"?>
<!-- Generator: Adobe Illustrator 23.1.1, SVG Export Plug-In . SVG Version: 6.00 Build 0)  -->
<svg version="1.1" id="Layer_1" xmlns="http://www.w3.org/2000/svg" xmlns:xlink="http://www.w3.org/1999/xlink" x="0px" y="0px"
     viewBox="0 0 588 558" style="enable-background:new 0 0 588 558;" xml:space="preserve">
<style type="text/css">
	.st0{fill:#FFFFFF;}
	.st1{fill:#4452A2;}
</style>
    <g>
	<circle class="st0" cx="292.8" cy="279.3" r="254.7"/>
        <g>
		<path class="st1" d="M38,279.3c0-140.7,114-254.7,254.7-254.7l0,0c140.7,0,254.7,114,254.7,254.7l0,0
			c0,140.7-114,254.7-254.7,254.7l0,0C152.1,534,38,420,38,279.3L38,279.3z M133.6,120.1c-40.8,40.8-65.9,97-65.9,159.2l0,0
			c0,62.2,25.2,118.4,65.9,159.2l0,0c40.8,40.8,97,65.9,159.2,65.9l0,0c62.2,0,118.4-25.2,159.2-65.9l0,0
			c40.8-40.8,65.9-97,65.9-159.2l0,0c0-62.2-25.2-118.4-65.9-159.2l0,0c-40.8-40.8-97-65.9-159.2-65.9l0,0
			C230.5,54.2,174.4,79.3,133.6,120.1L133.6,120.1z"/>
            <path class="st1" d="M189.5,279.3c0-57,46.2-103.2,103.2-103.2l0,0c57,0,103.2,46.2,103.2,103.2l0,0c0,57-46.2,103.2-103.2,103.2
			l0,0C235.7,382.5,189.5,336.3,189.5,279.3L189.5,279.3z M204.4,279.3c0.1,48.8,39.6,88.3,88.4,88.4l0,0
			c48.8-0.1,88.3-39.6,88.4-88.4l0,0c-0.1-48.8-39.6-88.3-88.4-88.4l0,0C243.9,191,204.4,230.5,204.4,279.3L204.4,279.3z"/>
            <g>
			<path class="st1" d="M184.1,156.4l-20.8-24.5l5.1-4.3l20.8,24.5L184.1,156.4z"/>
                <path class="st1" d="M173.7,123.1l9.3-6.3c7.3-5,11.9-1,17.6,7.2c2.8,4.1,9.7,13,0.3,19.4l-9,6.1L173.7,123.1z M194.5,141.8
				l2.7-1.8c3.4-2.3,2.3-5.3-2.2-11.9c-3.3-4.9-6.3-9.2-10.1-6.6l-2.9,1.9L194.5,141.8z"/>
                <path class="st1" d="M218.3,133.1l-6,2.9l-14.1-28.8l11.1-5.4c4.1-2,8-0.7,10.4,4.3c1.8,3.7,1.7,7.1-1.9,9.7l0,0.1
				c1.4-0.5,5.5-2.1,8,3.1c0.9,1.8,3.7,7.2,4.8,8.1l-5.9,2.9c-1.7-1.4-2.5-3.4-3.4-5.3c-1.7-3.4-2.8-6.5-7.4-4.2l-1.6,0.8
				L218.3,133.1z M210.3,116.7l2.7-1.3c2.4-1.2,1.9-3.9,1-5.7c-1.3-2.8-3-3.2-4.9-2.3l-2.7,1.3L210.3,116.7z"/>
                <path class="st1" d="M232.6,126.4L222.4,96l16.6-5.6l1.6,4.7l-10.2,3.4l2.5,7.5l9.4-3.2l1.6,4.7l-9.4,3.2l3,8.9l10.6-3.6l1.6,4.7
				L232.6,126.4z"/>
                <path class="st1" d="M263.9,85l1.1,5.2l-7.3,1.5l5.4,26.2l-6.6,1.3L251,93.1l-7.3,1.5l-1.1-5.2L263.9,85z"/>
                <path class="st1" d="M287.6,83l0.4,5.3l-7.4,0.6l2.1,26.7l-6.7,0.5l-2.1-26.7l-7.4,0.6l-0.4-5.3L287.6,83z"/>
                <path class="st1" d="M299.7,115.9c-8.3-0.4-9.6-5.3-9-10.9l6.7,0.3c-0.1,3.1-0.1,5.6,3.6,5.8c2.3,0.1,3.4-1.3,3.5-3.5
				c0.3-5.8-13.2-6.8-12.8-16.3c0.2-5,2.8-8.9,11-8.5c6.5,0.3,9.6,3.4,8.9,10.1l-6.5-0.3c0.1-2.4-0.2-4.9-2.9-5
				c-2.2-0.1-3.5,1-3.6,3.3c-0.3,6.1,13.2,6.2,12.8,16.3C310.9,115.5,304.8,116.2,299.7,115.9z"/>
                <path class="st1" d="M313.3,116.4l5.3-31.6l6.6,1.1l-4.4,26.4l9.9,1.7l-0.9,5.3L313.3,116.4z"/>
                <path class="st1" d="M328.2,118.6l17.9-28.1l8.5,2.6l-1.1,33.2l-6.8-2.1l0.4-7.3l-8.8-2.7l-3.8,6.3L328.2,118.6z M348.1,97.6
				L348.1,97.6l-7.1,12.3l6.1,1.9L348.1,97.6z"/>
                <path class="st1" d="M377.1,113.1c1.3-2.7,2-5.2-1.2-6.8c-3.8-1.8-6.2,3.3-8.9,8.9c-4.4,9-4.3,11.1-0.8,12.7
				c1,0.5,2.2,0.8,3.3,0.9l3.1-6.4l-3.3-1.6l2.1-4.4l9.3,4.5l-7.1,14.6c-1.8-0.5-6.2-1.8-8.6-3c-10.2-4.9-9.3-9.7-4-20.6
				c3.5-7.3,7.4-14.5,17.3-9.7c5.9,2.9,8,8,4.7,13.8L377.1,113.1z"/>
                <path class="st1" d="M376.5,138l17.8-26.7l14.6,9.7l-2.7,4.1l-9-6l-4.4,6.6l8.3,5.5l-2.7,4.1l-8.3-5.5l-5.2,7.8l9.3,6.2l-2.7,4.1
				L376.5,138z"/>
                <path class="st1" d="M428.2,137.2l-3.5,4l-5.7-4.8l-17.4,20.3l-5.1-4.4L414,132l-5.7-4.9l3.5-4L428.2,137.2z"/>
		</g>
            <path class="st1" d="M245.3,279.3c0-26.2,21.2-47.5,47.4-47.5l0,0c26.2,0,47.5,21.2,47.5,47.5l0,0h0c0,26.2-21.2,47.4-47.5,47.4
			l0,0C266.5,326.7,245.3,305.5,245.3,279.3L245.3,279.3z M252.7,279.3c0,22.1,17.9,40,40,40l0,0c22.1,0,40-18,40.1-40l0,0
			c0-22.1-17.9-40-40.1-40.1l0,0C270.6,239.3,252.8,257.1,252.7,279.3L252.7,279.3z"/>
            <polygon class="st1" points="112.2,185.8 132.3,185.8 132.3,253.5 166.3,185.8 186.9,185.8 142.5,278.9 199.7,386.5 175.6,386.5
			135.1,312.4 135.1,386.5 112.2,386.5 		"/>
            <polygon class="st1" points="415.8,185.8 436.7,185.8 436.7,363.5 475.7,363.5 475.7,386.5 415.8,386.5 		"/>
            <polygon class="st1" points="454.8,185.8 476.2,185.8 476.2,322.8 497,322.8 497,343.7 454.8,343.7 		"/>
            <path class="st1" d="M239.6,214.7c0,8.8-7.2,16-16,16c-8.8,0-16-7.2-16-16c0-8.8,7.2-16,16-16
			C232.4,198.7,239.6,205.9,239.6,214.7z"/>
            <path class="st1" d="M378.1,214.7c0,8.8-7.2,16-16,16s-16-7.2-16-16c0-8.8,7.2-16,16-16S378.1,205.9,378.1,214.7z"/>
            <path class="st1" d="M239.5,343.5c0,8.8-7.2,16-16,16c-8.8,0-16-7.2-16-16c0-8.8,7.2-16,16-16
			C232.3,327.5,239.5,334.6,239.5,343.5z"/>
            <path class="st1" d="M378.1,343.7c0,8.8-7.2,16-16,16c-8.8,0-16-7.2-16-16c0-8.8,7.2-16,16-16
			C370.9,327.7,378.1,334.9,378.1,343.7z"/>
            <g>
			<polygon class="st1" points="222.9,215 224.1,211.4 293.3,234.6 292.1,238.1 222.9,215 			"/>
                <polygon class="st1" points="292.1,234.6 361.3,211.4 362.4,215 293.3,238.1 292.1,234.6 			"/>
		</g>
            <g>
			<polygon class="st1" points="222.9,345.4 292.1,322.3 293.3,325.8 224.1,348.9 222.9,345.4 			"/>
                <polygon class="st1" points="292.1,325.8 293.3,322.3 362.4,345.4 361.3,348.9 292.1,325.8 			"/>
		</g>
            <g>
			<polygon class="st1" points="335.3,280.7 338.8,279.5 362,348.7 358.5,349.8 335.3,280.7 			"/>
                <polygon class="st1" points="335.3,279.5 358.5,210.3 362,211.5 338.8,280.7 335.3,279.5 			"/>
		</g>
            <g>
			<g>
				<line class="st1" x1="247.1" y1="280.1" x2="224" y2="349.2"/>
                <polygon class="st1" points="222.2,348.7 245.3,279.5 248.8,280.7 225.7,349.8 222.2,348.7 				"/>
			</g>
                <g>
				<line class="st1" x1="247.1" y1="280.1" x2="224" y2="210.9"/>
                    <polygon class="st1" points="222.2,211.5 225.7,210.3 248.8,279.5 245.3,280.7 222.2,211.5 				"/>
			</g>
		</g>
            <polygon class="st1" points="227.8,340.3 359.9,211.2 363.8,215.2 231.7,344.3 227.8,340.3 		"/>
            <polygon class="st1" points="222.5,216.1 226.3,212.1 361.2,339.4 357.4,343.4 222.5,216.1 		"/>
            <g>
			<line class="st1" x1="197.6" y1="281" x2="249.9" y2="281"/>
                <polygon class="st1" points="197.6,284.7 197.6,277.3 249.9,277.3 249.9,284.7 197.6,284.7 			"/>
		</g>
            <g>
			<line class="st1" x1="336.4" y1="279.8" x2="388.7" y2="279.8"/>
                <polygon class="st1" points="336.4,283.5 336.4,276.1 388.7,276.1 388.7,283.5 336.4,283.5 			"/>
		</g>
            <g>
			<line class="st1" x1="338.7" y1="281" x2="391" y2="281"/>
                <polygon class="st1" points="338.7,282.8 338.7,279.1 391,279.1 391,282.8 338.7,282.8 			"/>
		</g>
            <g>
			<line class="st1" x1="292.4" y1="234.5" x2="292.4" y2="182.2"/>
                <polygon class="st1" points="288.7,234.5 288.7,182.2 296.1,182.2 296.1,234.5 288.7,234.5 			"/>
		</g>
            <g>
			<polygon class="st1" points="292.7,250.2 285,423.1 302.6,423.1 			"/>
                <path class="st1" d="M283.1,424.9l7.7-174.8l3.7,0l10.1,174.8H283.1L283.1,424.9z M287,421.2h13.7l-7.7-134.6L287,421.2
				L287,421.2z M290.8,250.3l1.9-0.1L290.8,250.3L290.8,250.3z"/>
		</g>
            <g>
			<polygon class="st1" points="289.6,526.5 285.5,432.8 303.1,432.8 297.7,526 			"/>
                <path class="st1" d="M283.6,430.9H305l-5.6,96.8l-9.7,0.6l-1.9,0.1L283.6,430.9L283.6,430.9z M289.6,526.5l1.8-0.1L289.6,526.5
				L289.6,526.5z M291.4,524.5l4.5-0.2l5.2-89.6h-13.7L291.4,524.5L291.4,524.5z"/>
		</g>
            <g>
			<path class="st1" d="M233,437.7c3-0.6,6.1-1.5,8.7-3.4l6.9,2.2l-11.4,36.1l-7.8-2.5l8.8-27.8c-2.4,1-4.9,1.6-7.4,2.1L233,437.7z"
            />
                <path class="st1" d="M255.8,467.9c-0.2,1-0.2,1.9,0.1,2.7c0.3,0.8,0.9,1.4,2,1.6c3.7,0.7,3.9-2.4,5.5-11.3
				c-2,1.4-4.2,1.8-6.6,1.3c-5.7-1-7-6.6-6.1-11.5c1.3-7.3,4.6-12.8,13-11.3c11,2,9.4,10.8,7.5,21.2c-1.7,9.2-3.6,18.9-14.5,16.9
				c-6.5-1.2-9.8-4-8.4-11L255.8,467.9z M260.5,457.6c3.2,0.6,4.1-3.7,4.6-6c0.4-2.3,1.1-6.5-2.1-7.1c-3.3-0.6-4,3.7-4.5,6
				C258.1,452.8,257.3,457,260.5,457.6z"/>
                <path class="st1" d="M312.7,463.3c5.4-22.6,5.4-22.7,5.4-22.8l9.9-1.7l3.9,23l2.9-0.5l1,5.8l-2.9,0.5l1.4,8.5l-7.4,1.2l-1.4-8.5
				l-11.5,1.9L312.7,463.3z M325.2,463.1l-2.5-17.9l-0.1,0l-3.8,18.9L325.2,463.1z"/>
                <path class="st1" d="M356.8,450c3.5,11.3,5,18.9-4.7,21.9c-9.7,3-12.7-4.1-16.2-15.4c-4.3-13.8-4.2-18.9,4.8-21.7
				C349.5,432,352.5,436.2,356.8,450z M343.2,454.3c3.4,10.9,4.4,13.2,7.3,12.3c2.9-0.9,2.4-3.3-0.9-14.2
				c-3.4-11.1-4.2-13.2-7.3-12.3C339.2,441,339.8,443.2,343.2,454.3z"/>
		</g>
	</g>
</g>
</svg>
