<?xml version="1.0" encoding="UTF-8" standalone="no"?>
<svg
   xmlns:dc="http://purl.org/dc/elements/1.1/"
   xmlns:cc="http://creativecommons.org/ns#"
   xmlns:rdf="http://www.w3.org/1999/02/22-rdf-syntax-ns#"
   xmlns:svg="http://www.w3.org/2000/svg"
   xmlns="http://www.w3.org/2000/svg"
   xmlns:sodipodi="http://sodipodi.sourceforge.net/DTD/sodipodi-0.dtd"
   xmlns:inkscape="http://www.inkscape.org/namespaces/inkscape"
   width="300pt"
   height="333pt"
   viewBox="0 0 300 333"
   version="1.1"
   id="svg2"
   inkscape:version="0.91 r13725"
   sodipodi:docname="nvbf.svg">
  <metadata
     id="metadata38">
    <rdf:RDF>
      <cc:Work
         rdf:about="">
        <dc:format>image/svg+xml</dc:format>
        <dc:type
           rdf:resource="http://purl.org/dc/dcmitype/StillImage" />
      </cc:Work>
    </rdf:RDF>
  </metadata>
  <defs
     id="defs36" />
  <sodipodi:namedview
     pagecolor="#ffffff"
     bordercolor="#666666"
     borderopacity="1"
     objecttolerance="10"
     gridtolerance="10"
     guidetolerance="10"
     inkscape:pageopacity="0"
     inkscape:pageshadow="2"
     inkscape:window-width="1153"
     inkscape:window-height="956"
     id="namedview34"
     showgrid="false"
     inkscape:zoom="0.56696697"
     inkscape:cx="187.5"
     inkscape:cy="208.125"
     inkscape:window-x="836"
     inkscape:window-y="24"
     inkscape:window-maximized="0"
     inkscape:current-layer="svg2" />
  <g
     id="#ffffffff" />
  <g
     id="#c7001eff"
     transform="translate(-100.1822,1.411017)">
    <path
       d="m 126.87,15.11 c 5.28,-0.19 10.57,-0.17 15.85,0.03 8.04,13.81 15.41,28.02 23.93,41.53 0.12,-13.85 0.11,-27.73 -0.59,-41.57 4.32,-0.13 8.66,-0.13 12.99,-0.04 0.07,19.87 0.22,39.74 -0.09,59.6 -4.83,0.06 -9.65,0.04 -14.47,-0.09 -8.63,-14.53 -16.37,-29.58 -25.25,-43.95 -0.66,14.68 0.73,29.37 0.01,44.06 -4.1,0.01 -8.2,0 -12.3,-0.03 -0.32,-19.85 -0.16,-39.7 -0.08,-59.54 z"
       id="path6"
       inkscape:connector-curvature="0"
       style="opacity:1;fill:#c7001e" />
    <path
       d="m 186.64,15.08 c 4.72,-0.14 9.45,-0.11 14.17,0.03 6.11,14.44 11.29,29.3 17.91,43.52 6.5,-14.35 11.88,-29.2 18.32,-43.58 4.37,-0.06 8.75,-0.08 13.12,0 -8.01,19.93 -16.48,39.68 -24.63,59.55 -4.36,0.1 -8.73,0.1 -13.09,0.02 C 203.78,54.8 195.06,35 186.64,15.08 Z"
       id="path8"
       inkscape:connector-curvature="0"
       style="opacity:1;fill:#c7001e" />
    <path
       d="m 257.63,15.07 c 10.81,-0.09 21.62,0.02 32.43,-0.06 5.2,-0.04 10.91,0.38 15.06,3.91 5.05,4.07 6.3,11.51 4.24,17.45 -1.22,3.62 -4.32,6.06 -7.12,8.45 3.04,2.26 6.51,4.63 7.5,8.52 1.36,5.9 0.85,13.19 -4.11,17.33 -4.37,3.46 -10.22,3.95 -15.58,4.02 -10.77,-0.03 -21.54,-0.01 -32.31,-0.02 -0.4,-19.86 -0.21,-39.73 -0.11,-59.6 m 12.66,10.99 c 0,4.4 0.01,8.81 0,13.21 5.93,0.11 11.85,0.29 17.78,0.14 2.46,-0.13 5.32,-0.27 7.06,-2.29 1.98,-2.37 1.92,-6.03 0.37,-8.6 -1.36,-2.13 -4.14,-2.37 -6.42,-2.55 -6.26,-0.28 -12.53,-0.04 -18.79,0.09 m -0.1,24.11 c -0.02,4.58 -0.02,9.15 0.01,13.73 7.2,-0.04 14.45,0.57 21.63,-0.2 4.93,-0.48 6.19,-6.9 4.06,-10.61 -1.3,-2.46 -4.39,-2.79 -6.87,-2.89 -6.28,-0.13 -12.56,0.11 -18.83,-0.03 z"
       id="path10"
       inkscape:connector-curvature="0"
       style="opacity:1;fill:#c7001e" />
    <path
       d="m 332,19.96 c 5.22,-3.59 11.72,-4.81 17.96,-4.93 7.45,-0.04 14.91,0.01 22.36,0.04 0.01,3.45 0.03,6.9 0.06,10.35 -6.8,0.17 -13.59,0.02 -20.39,0.03 -4.16,0.05 -8.75,0.63 -11.85,3.69 -2.86,2.73 -3.21,6.88 -3.99,10.53 12.05,0.24 24.12,-0.17 36.17,0.33 0.01,3.44 0.01,6.89 0.01,10.34 -11.99,0.2 -23.97,-0.03 -35.96,0.09 -0.11,8.08 0.1,16.17 -0.17,24.25 -4.15,0 -8.29,0 -12.44,-0.01 -0.22,-13.14 -0.48,-26.33 0.69,-39.44 0.53,-5.75 2.64,-11.83 7.55,-15.27 z"
       id="path12"
       inkscape:connector-curvature="0"
       style="opacity:1;fill:#c7001e" />
    <path
       d="m 178,92.01 c 64.82,-7.56 131.03,-5.82 194.86,8.31 0.46,11.39 -0.16,22.8 -1.18,34.15 -3.15,37.27 -11.57,74.69 -29.44,107.81 -13.96,26.05 -34.52,49.03 -60.53,63.45 -9.12,5.1 -18.85,9.08 -28.8,12.22 -2.33,0.77 -4.86,1.16 -7.23,0.34 -20.03,-6.08 -38.64,-16.75 -54.01,-30.97 -22.63,-20.6 -38.34,-47.83 -48.52,-76.47 -10.51,-29.45 -15.24,-60.65 -16.88,-91.78 -0.38,-6.22 -0.32,-12.46 -0.13,-18.69 17.11,-3.77 34.47,-6.33 51.86,-8.37 m 63.38,9.17 c -17.87,1.64 -35.18,8.76 -48.98,20.23 -16.38,13.46 -27.72,32.9 -31.33,53.81 -6.27,32.99 8.27,68.68 35.53,88.2 18.7,13.88 43,19.94 66.03,16.37 16.47,-2.36 32.16,-9.59 44.82,-20.36 16.92,-14.17 28.13,-34.83 31.04,-56.68 5.13,-34.32 -12.18,-70.5 -41.79,-88.45 -16.37,-10.15 -36.12,-15.02 -55.32,-13.12 z"
       id="path14"
       inkscape:connector-curvature="0"
       style="opacity:1;fill:#c7001e" />
    <path
       d="m 238.36,114.7 c 4.8,-0.64 9.65,-0.75 14.48,-0.84 -8.72,14.79 -13.98,31.91 -12.76,49.19 0.38,9.6 3.18,18.86 6.39,27.84 -4.45,6 -9.81,11.25 -15.75,15.77 -18.63,-26.25 -17.73,-64.49 2.23,-89.75 1.28,-1.66 3.49,-1.88 5.41,-2.21 z"
       id="path16"
       inkscape:connector-curvature="0"
       style="opacity:1;fill:#c7001e" />
    <path
       d="m 249.63,132.64 c 2.3,-6.44 5.33,-12.62 9.32,-18.18 15.79,2.11 31,9 42.61,19.98 10.15,9.42 17.84,21.6 21.54,34.97 -4.42,-5.08 -8.31,-10.65 -13.4,-15.13 -16.05,-14.97 -38.23,-22.57 -60.07,-21.64 z"
       id="path18"
       inkscape:connector-curvature="0"
       style="opacity:1;fill:#c7001e" />
    <path
       d="m 205.51,129.54 c 4.78,-6.62 13.06,-9.04 20.32,-11.87 -3.69,6.29 -7.25,12.71 -9.48,19.68 -6.86,20.15 -5.33,43 4.15,62.05 1.76,3.53 3.79,6.92 5.69,10.38 -6.52,4.12 -13.67,7.13 -21.08,9.21 -9.06,-12.41 -13.75,-27.69 -14.19,-42.98 -0.26,-16.52 4.85,-33.1 14.59,-46.47 z"
       id="path20"
       inkscape:connector-curvature="0"
       style="opacity:1;fill:#c7001e" />
    <path
       d="m 179.25,221.51 c -12.53,-27.54 -6.36,-62.26 14.89,-83.8 -3.78,9.39 -7.27,19.04 -8.03,29.23 -1.17,11.16 0.39,22.52 3.74,33.2 2.19,7.13 5.91,13.62 9.51,20.11 -6.62,1.27 -13.38,1.64 -20.11,1.26 z"
       id="path22"
       inkscape:connector-curvature="0"
       style="opacity:1;fill:#c7001e" />
    <path
       d="m 247.97,138.05 c 17.2,-1.36 34.86,3.15 49.16,12.83 11.79,7.82 21.15,19.1 27.07,31.92 3.77,7.58 1.57,16.28 0.17,24.18 -2.34,-3.78 -4.46,-7.71 -7.02,-11.34 -12.57,-17.96 -32.7,-30.29 -54.35,-33.59 -5.9,-0.97 -11.9,-0.83 -17.86,-0.93 -0.11,-7.78 0.68,-15.57 2.83,-23.07 z"
       id="path24"
       inkscape:connector-curvature="0"
       style="opacity:1;fill:#c7001e" />
    <path
       d="m 245.69,166.36 c 25.62,-1.61 51.72,10.28 66.74,31.21 3.7,5.46 7.7,11.08 9.31,17.56 -0.76,6.08 -4.33,11.37 -7.44,16.51 -4.25,-6.89 -8.74,-13.71 -14.49,-19.45 -11.79,-12.01 -27.38,-20.29 -43.99,-23.05 -1.68,-0.56 -4.09,-0.29 -4.95,-2.17 -3.2,-6.38 -4.38,-13.57 -5.18,-20.61 z"
       id="path26"
       inkscape:connector-curvature="0"
       style="opacity:1;fill:#c7001e" />
    <path
       d="m 233.15,211.12 c 6.9,-4.84 12.56,-11.14 17.96,-17.56 7.44,0.99 14.79,2.87 21.61,6.08 -7.44,15.08 -19.89,27.68 -35.04,35.04 -12.83,6.44 -27.52,8.75 -41.75,7.44 -1.84,-0.22 -3.86,-0.47 -5.11,-1.99 -3.73,-3.85 -6.41,-8.56 -8.99,-13.21 18.22,0.46 36.61,-4.96 51.32,-15.8 z"
       id="path28"
       inkscape:connector-curvature="0"
       style="opacity:1;fill:#c7001e" />
    <path
       d="m 277.45,201.91 c 6.94,3.59 13.26,8.3 18.61,14 -7.17,14.97 -19.14,27.63 -33.9,35.29 -14.07,7.57 -30.63,10.13 -46.4,7.91 -6.85,-1.8 -12.28,-6.78 -17.52,-11.3 19.74,0.84 39.85,-4.82 55.46,-17.12 10.11,-7.54 17.83,-17.74 23.75,-28.78 z"
       id="path30"
       inkscape:connector-curvature="0"
       style="opacity:1;fill:#c7001e" />
    <path
       d="m 299.79,219.96 c 4.46,5.12 8.27,10.78 11.14,16.95 -8.67,11.25 -20.21,20.39 -33.52,25.49 -14.46,5.66 -30.73,6.89 -45.8,3.02 7.38,-1.31 14.9,-2.22 21.97,-4.85 19.9,-6.96 36.62,-21.9 46.21,-40.61 z"
       id="path32"
       inkscape:connector-curvature="0"
       style="opacity:1;fill:#c7001e" />
  </g>
</svg>
