<?xml version="1.0" encoding="UTF-8" ?>
<!DOCTYPE svg PUBLIC "-//W3C//DTD SVG 1.1//EN" "http://www.w3.org/Graphics/SVG/1.1/DTD/svg11.dtd">
<svg width="500pt" height="333pt" viewBox="0 0 500 333" version="1.1" xmlns="http://www.w3.org/2000/svg">
<g id="#ffffffff">
</g>
<g id="#c7001eff">
<path fill="#c7001e" opacity="1.00" d=" M 126.87 15.11 C 132.15 14.92 137.44 14.94 142.72 15.14 C 150.76 28.95 158.13 43.16 166.65 56.67 C 166.77 42.82 166.76 28.94 166.06 15.10 C 170.38 14.97 174.72 14.97 179.05 15.06 C 179.12 34.93 179.27 54.80 178.96 74.66 C 174.13 74.72 169.31 74.70 164.49 74.57 C 155.86 60.04 148.12 44.99 139.24 30.62 C 138.58 45.30 139.97 59.99 139.25 74.68 C 135.15 74.69 131.05 74.68 126.95 74.65 C 126.63 54.80 126.79 34.95 126.87 15.11 Z" />
<path fill="#c7001e" opacity="1.00" d=" M 186.64 15.08 C 191.36 14.94 196.09 14.97 200.81 15.11 C 206.92 29.55 212.10 44.41 218.72 58.63 C 225.22 44.28 230.60 29.43 237.04 15.05 C 241.41 14.99 245.79 14.97 250.16 15.05 C 242.15 34.98 233.68 54.73 225.53 74.60 C 221.17 74.70 216.80 74.70 212.44 74.62 C 203.78 54.80 195.06 35.00 186.64 15.08 Z" />
<path fill="#c7001e" opacity="1.00" d=" M 257.63 15.07 C 268.44 14.98 279.25 15.09 290.06 15.01 C 295.26 14.97 300.97 15.39 305.12 18.92 C 310.17 22.99 311.42 30.43 309.36 36.37 C 308.14 39.99 305.04 42.43 302.24 44.82 C 305.28 47.08 308.75 49.45 309.74 53.34 C 311.10 59.24 310.59 66.53 305.63 70.67 C 301.26 74.13 295.41 74.62 290.05 74.69 C 279.28 74.66 268.51 74.68 257.74 74.67 C 257.34 54.81 257.53 34.94 257.63 15.07 M 270.29 26.06 C 270.29 30.46 270.30 34.87 270.29 39.27 C 276.22 39.38 282.14 39.56 288.07 39.41 C 290.53 39.28 293.39 39.14 295.13 37.12 C 297.11 34.75 297.05 31.09 295.50 28.52 C 294.14 26.39 291.36 26.15 289.08 25.97 C 282.82 25.69 276.55 25.93 270.29 26.06 M 270.19 50.17 C 270.17 54.75 270.17 59.32 270.20 63.90 C 277.40 63.86 284.65 64.47 291.83 63.70 C 296.76 63.22 298.02 56.80 295.89 53.09 C 294.59 50.63 291.50 50.30 289.02 50.20 C 282.74 50.07 276.46 50.31 270.19 50.17 Z" />
<path fill="#c7001e" opacity="1.00" d=" M 332.00 19.96 C 337.22 16.37 343.72 15.15 349.96 15.03 C 357.41 14.99 364.87 15.04 372.32 15.07 C 372.33 18.52 372.35 21.97 372.38 25.42 C 365.58 25.59 358.79 25.44 351.99 25.45 C 347.83 25.50 343.24 26.08 340.14 29.14 C 337.28 31.87 336.93 36.02 336.15 39.67 C 348.20 39.91 360.27 39.50 372.32 40.00 C 372.33 43.44 372.33 46.89 372.33 50.34 C 360.34 50.54 348.36 50.31 336.37 50.43 C 336.26 58.51 336.47 66.60 336.20 74.68 C 332.05 74.68 327.91 74.68 323.76 74.67 C 323.54 61.53 323.28 48.34 324.45 35.23 C 324.98 29.48 327.09 23.40 332.00 19.96 Z" />
<path fill="#c7001e" opacity="1.00" d=" M 178.00 92.01 C 242.82 84.45 309.03 86.19 372.86 100.32 C 373.32 111.71 372.70 123.12 371.68 134.47 C 368.53 171.74 360.11 209.16 342.24 242.28 C 328.28 268.33 307.72 291.31 281.71 305.73 C 272.59 310.83 262.86 314.81 252.91 317.95 C 250.58 318.72 248.05 319.11 245.68 318.29 C 225.65 312.21 207.04 301.54 191.67 287.32 C 169.04 266.72 153.33 239.49 143.15 210.85 C 132.64 181.40 127.91 150.20 126.27 119.07 C 125.89 112.85 125.95 106.61 126.14 100.38 C 143.25 96.61 160.61 94.05 178.00 92.01 M 241.38 101.18 C 223.51 102.82 206.20 109.94 192.40 121.41 C 176.02 134.87 164.68 154.31 161.07 175.22 C 154.80 208.21 169.34 243.90 196.60 263.42 C 215.30 277.30 239.60 283.36 262.63 279.79 C 279.10 277.43 294.79 270.20 307.45 259.43 C 324.37 245.26 335.58 224.60 338.49 202.75 C 343.62 168.43 326.31 132.25 296.70 114.30 C 280.33 104.15 260.58 99.28 241.38 101.18 Z" />
<path fill="#c7001e" opacity="1.00" d=" M 238.36 114.70 C 243.16 114.06 248.01 113.95 252.84 113.86 C 244.12 128.65 238.86 145.77 240.08 163.05 C 240.46 172.65 243.26 181.91 246.47 190.89 C 242.02 196.89 236.66 202.14 230.72 206.66 C 212.09 180.41 212.99 142.17 232.95 116.91 C 234.23 115.25 236.44 115.03 238.36 114.70 Z" />
<path fill="#c7001e" opacity="1.00" d=" M 249.63 132.64 C 251.93 126.20 254.96 120.02 258.95 114.46 C 274.74 116.57 289.95 123.46 301.56 134.44 C 311.71 143.86 319.40 156.04 323.10 169.41 C 318.68 164.33 314.79 158.76 309.70 154.28 C 293.65 139.31 271.47 131.71 249.63 132.64 Z" />
<path fill="#c7001e" opacity="1.00" d=" M 205.51 129.54 C 210.29 122.92 218.57 120.50 225.83 117.67 C 222.14 123.96 218.58 130.38 216.35 137.35 C 209.49 157.50 211.02 180.35 220.50 199.40 C 222.26 202.93 224.29 206.32 226.19 209.78 C 219.67 213.90 212.52 216.91 205.11 218.99 C 196.05 206.58 191.36 191.30 190.92 176.01 C 190.66 159.49 195.77 142.91 205.51 129.54 Z" />
<path fill="#c7001e" opacity="1.00" d=" M 179.25 221.51 C 166.72 193.97 172.89 159.25 194.14 137.71 C 190.36 147.10 186.87 156.75 186.11 166.94 C 184.94 178.10 186.50 189.46 189.85 200.14 C 192.04 207.27 195.76 213.76 199.36 220.25 C 192.74 221.52 185.98 221.89 179.25 221.51 Z" />
<path fill="#c7001e" opacity="1.00" d=" M 247.97 138.05 C 265.17 136.69 282.83 141.20 297.13 150.88 C 308.92 158.70 318.28 169.98 324.20 182.80 C 327.97 190.38 325.77 199.08 324.37 206.98 C 322.03 203.20 319.91 199.27 317.35 195.64 C 304.78 177.68 284.65 165.35 263.00 162.05 C 257.10 161.08 251.10 161.22 245.14 161.12 C 245.03 153.34 245.82 145.55 247.97 138.05 Z" />
<path fill="#c7001e" opacity="1.00" d=" M 245.69 166.36 C 271.31 164.75 297.41 176.64 312.43 197.57 C 316.13 203.03 320.13 208.65 321.74 215.13 C 320.98 221.21 317.41 226.50 314.30 231.64 C 310.05 224.75 305.56 217.93 299.81 212.19 C 288.02 200.18 272.43 191.90 255.82 189.14 C 254.14 188.58 251.73 188.85 250.87 186.97 C 247.67 180.59 246.49 173.40 245.69 166.36 Z" />
<path fill="#c7001e" opacity="1.00" d=" M 233.15 211.12 C 240.05 206.28 245.71 199.98 251.11 193.56 C 258.55 194.55 265.90 196.43 272.72 199.64 C 265.28 214.72 252.83 227.32 237.68 234.68 C 224.85 241.12 210.16 243.43 195.93 242.12 C 194.09 241.90 192.07 241.65 190.82 240.13 C 187.09 236.28 184.41 231.57 181.83 226.92 C 200.05 227.38 218.44 221.96 233.15 211.12 Z" />
<path fill="#c7001e" opacity="1.00" d=" M 277.45 201.91 C 284.39 205.50 290.71 210.21 296.06 215.91 C 288.89 230.88 276.92 243.54 262.16 251.20 C 248.09 258.77 231.53 261.33 215.76 259.11 C 208.91 257.31 203.48 252.33 198.24 247.81 C 217.98 248.65 238.09 242.99 253.70 230.69 C 263.81 223.15 271.53 212.95 277.45 201.91 Z" />
<path fill="#c7001e" opacity="1.00" d=" M 299.79 219.96 C 304.25 225.08 308.06 230.74 310.93 236.91 C 302.26 248.16 290.72 257.30 277.41 262.40 C 262.95 268.06 246.68 269.29 231.61 265.42 C 238.99 264.11 246.51 263.20 253.58 260.57 C 273.48 253.61 290.20 238.67 299.79 219.96 Z" />
</g>
</svg>
