<?xml version="1.0" encoding="UTF-8" standalone="no"?>
<svg
   xmlns:dc="http://purl.org/dc/elements/1.1/"
   xmlns:cc="http://creativecommons.org/ns#"
   xmlns:rdf="http://www.w3.org/1999/02/22-rdf-syntax-ns#"
   xmlns:svg="http://www.w3.org/2000/svg"
   xmlns="http://www.w3.org/2000/svg"
   xmlns:sodipodi="http://sodipodi.sourceforge.net/DTD/sodipodi-0.dtd"
   xmlns:inkscape="http://www.inkscape.org/namespaces/inkscape"
   version="1.1"
   id="svg62"
   xml:space="preserve"
   width="476.77798"
   height="476.78"
   viewBox="0 0 476.77799 476.78"
   sodipodi:docname="SVK_logo_Vectorisert.svg"
   inkscape:version="1.0.1 (3bc2e813f5, 2020-09-07)"><metadata
     id="metadata68"><rdf:RDF><cc:Work
         rdf:about=""><dc:format>image/svg+xml</dc:format><dc:type
           rdf:resource="http://purl.org/dc/dcmitype/StillImage" /><dc:title></dc:title></cc:Work></rdf:RDF></metadata><defs
     id="defs66"><clipPath
       clipPathUnits="userSpaceOnUse"
       id="clipPath78"><path
         d="M 105,103 H 462.584 V 460.585 H 105 Z"
         id="path76" /></clipPath><clipPath
       clipPathUnits="userSpaceOnUse"
       id="clipPath152"><path
         d="M 105,103 H 462.584 V 460.585 H 105 Z"
         id="path150" /></clipPath></defs><sodipodi:namedview
     pagecolor="#ffffff"
     bordercolor="#666666"
     borderopacity="1"
     objecttolerance="10"
     gridtolerance="10"
     guidetolerance="10"
     inkscape:pageopacity="0"
     inkscape:pageshadow="2"
     inkscape:window-width="1920"
     inkscape:window-height="1137"
     id="namedview64"
     showgrid="false"
     inkscape:zoom="0.64"
     inkscape:cx="514.53079"
     inkscape:cy="487.06676"
     inkscape:window-x="-8"
     inkscape:window-y="-8"
     inkscape:window-maximized="1"
     inkscape:current-layer="g70"
     fit-margin-top="0"
     fit-margin-left="0"
     fit-margin-right="0"
     fit-margin-bottom="0" /><g
     id="g70"
     inkscape:groupmode="layer"
     inkscape:label="SVK_logo_Vectorisert (1)"
     transform="matrix(1.3333333,0,0,-1.3333333,-140.00066,614.11332)"><g
       id="g72"><g
         id="g74"
         clip-path="url(#clipPath78)"><g
           id="g80"
           transform="translate(283.7925,103.5)"><path
             d="m 0,0 c 98.468,0 178.292,79.824 178.292,178.292 0,98.469 -79.824,178.293 -178.292,178.293 -98.468,0 -178.292,-79.824 -178.292,-178.293 C -178.292,79.824 -98.468,0 0,0"
             style="fill:#ffffff;fill-opacity:1;fill-rule:nonzero;stroke:none"
             id="path82" /></g><g
           id="g84"
           transform="translate(283.7925,103.5)"><path
             d="m 0,0 c 98.468,0 178.292,79.824 178.292,178.292 0,98.469 -79.824,178.293 -178.292,178.293 -98.468,0 -178.292,-79.824 -178.292,-178.293 C -178.292,79.824 -98.468,0 0,0 Z"
             style="fill:none;stroke:#d22027;stroke-width:1;stroke-linecap:butt;stroke-linejoin:miter;stroke-miterlimit:4;stroke-dasharray:none;stroke-opacity:1"
             id="path86" /></g><g
           id="g88"
           transform="translate(283.7925,113.3149)"><path
             d="m 0,0 c 93.048,0 168.478,75.43 168.478,168.478 0,93.047 -75.43,168.477 -168.478,168.477 -93.048,0 -168.478,-75.43 -168.478,-168.477 C -168.478,75.43 -93.048,0 0,0"
             style="fill:#ffffff;fill-opacity:1;fill-rule:nonzero;stroke:none"
             id="path90" /></g><g
           id="g92"
           transform="translate(283.7925,113.3149)"><path
             d="m 0,0 c 93.048,0 168.478,75.43 168.478,168.478 0,93.047 -75.43,168.477 -168.478,168.477 -93.048,0 -168.478,-75.43 -168.478,-168.477 C -168.478,75.43 -93.048,0 0,0 Z"
             style="fill:none;stroke:#d22027;stroke-width:2.706;stroke-linecap:butt;stroke-linejoin:miter;stroke-miterlimit:4;stroke-dasharray:none;stroke-opacity:1"
             id="path94" /></g><g
           id="g96"
           transform="translate(283.7925,149.3979)"><path
             d="m 0,0 c 69.597,0 126.017,56.42 126.017,126.017 0,69.597 -56.42,126.016 -126.017,126.016 -69.597,0 -126.017,-56.419 -126.017,-126.016 C -126.017,56.42 -69.597,0 0,0 Z"
             style="fill:none;stroke:#d22027;stroke-width:2.706;stroke-linecap:butt;stroke-linejoin:miter;stroke-miterlimit:4;stroke-dasharray:none;stroke-opacity:1"
             id="path98" /></g><g
           id="g100"
           transform="translate(283.9342,156.8622)"><path
             d="m 0,0 c 65.475,0 118.552,53.078 118.552,118.552 0,65.475 -53.077,118.553 -118.552,118.553 -65.475,0 -118.552,-53.078 -118.552,-118.553 C -118.552,53.078 -65.475,0 0,0 Z"
             style="fill:none;stroke:#d22027;stroke-width:1;stroke-linecap:butt;stroke-linejoin:miter;stroke-miterlimit:4;stroke-dasharray:none;stroke-opacity:1"
             id="path102" /></g><g
           id="g104"
           transform="translate(230.6339,346.4615)"><path
             d="M 0,0 C 1.914,-1.807 3.12,-2.546 3.505,-2.756 5.049,-1.859 6.241,-0.865 6.99,0.14 5.876,0.68 2.536,2.42 0.833,4.488 -1.165,6.912 -2.338,10.642 -2.421,13.24 -3.604,11.155 -4.214,8.815 -4.19,6.404 -4.044,5.996 -2.762,2.616 0,0"
             style="fill:#d22027;fill-opacity:1;fill-rule:nonzero;stroke:none"
             id="path106" /></g><g
           id="g108"
           transform="translate(230.1282,345.9318)"><path
             d="m 0,0 c -1.635,1.55 -2.767,3.333 -3.477,4.694 0.571,-3.248 2.303,-6.16 4.915,-8.187 0.32,0.13 1.006,0.419 1.831,0.856 C 2.651,-2.249 1.544,-1.46 0,0"
             style="fill:#d22027;fill-opacity:1;fill-rule:nonzero;stroke:none"
             id="path110" /></g><g
           id="g112"
           transform="translate(242.6249,366.2424)"><path
             d="m 0,0 c 0.213,0 0.418,-0.005 0.617,-0.013 -1.041,0.262 -2.113,0.394 -3.212,0.394 -2.029,0 -4.067,-0.472 -5.904,-1.365 C -8.518,-1.297 -8.55,-1.948 -8.521,-2.81 -5.553,-0.5 -2.277,0 0,0"
             style="fill:#d22027;fill-opacity:1;fill-rule:nonzero;stroke:none"
             id="path114" /></g><g
           id="g116"
           transform="translate(238.0287,347.2157)"><path
             d="M 0,0 C 1.411,2.381 1.477,4.991 1.467,5.711 0.599,6.236 -2.985,8.533 -3.868,11.283 -4.681,13.818 -4.7,16.455 -4.654,17.647 -6.365,16.678 -7.862,15.33 -9.015,13.731 -9.41,11.423 -8.217,6.894 -5.995,4.2 -4.34,2.186 -0.997,0.482 0,0"
             style="fill:#d22027;fill-opacity:1;fill-rule:nonzero;stroke:none"
             id="path118" /></g><g
           id="g120"
           transform="translate(244.0576,345.6099)"><path
             d="M 0,0 C 1.481,2.515 2.6,6.228 1.373,9.197 -1.235,9.027 -3.274,7.733 -3.831,7.348 -3.819,6.557 -3.893,3.568 -5.58,0.938 c -1.529,-2.386 -4.818,-4.004 -6.218,-4.611 1.73,-1.174 3.728,-1.925 5.792,-2.179 C -5.32,-5.445 -1.972,-3.345 0,0"
             style="fill:#d22027;fill-opacity:1;fill-rule:nonzero;stroke:none"
             id="path122" /></g><g
           id="g124"
           transform="translate(234.1506,362.5319)"><path
             d="m 0,0 c 0.106,-1.392 0.343,-2.674 0.708,-3.81 0.032,-0.097 0.066,-0.193 0.108,-0.295 0.909,0.884 3.499,2.852 8.826,3.303 0.261,0.024 0.527,0.034 0.795,0.034 2.926,0 5.647,-1.298 7.128,-2.161 -0.99,1.858 -2.414,3.464 -4.165,4.674 -0.403,0.277 -0.824,0.535 -1.262,0.768 l -0.07,0.023 C 12.056,2.54 10.584,2.977 8.474,2.977 6.206,2.977 2.907,2.457 0,0"
             style="fill:#d22027;fill-opacity:1;fill-rule:nonzero;stroke:none"
             id="path126" /></g><g
           id="g128"
           transform="translate(252.2854,358.3802)"><path
             d="m 0,0 c -0.639,0.441 -4.014,2.653 -7.698,2.653 -0.247,0 -0.494,-0.011 -0.733,-0.03 -5.549,-0.472 -7.971,-2.661 -8.542,-3.265 1.207,-2.046 3.787,-3.713 4.525,-4.162 0.686,0.468 3.13,1.979 6.155,1.979 0.378,0 0.753,-0.024 1.125,-0.069 C -2.376,-3.25 -0.045,-4.893 0.976,-5.72 1.02,-4.725 0.957,-3.722 0.781,-2.732 0.616,-1.794 0.353,-0.876 0,0"
             style="fill:#d22027;fill-opacity:1;fill-rule:nonzero;stroke:none"
             id="path130" /></g><g
           id="g132"
           transform="translate(250.452,353.6375)"><path
             d="m 0,0 c -1.161,0.601 -2.313,0.981 -3.429,1.123 -0.264,0.033 -0.538,0.054 -0.816,0.06 1.164,-3.17 0.007,-6.99 -1.52,-9.582 -1.597,-2.715 -4.038,-4.631 -5.423,-5.571 0.141,-0.005 0.278,-0.008 0.416,-0.008 2.257,0 4.502,0.576 6.493,1.668 3.153,2.937 4.137,6.169 4.408,8.365 C 0.37,-1.989 0.108,-0.5 0,0"
             style="fill:#d22027;fill-opacity:1;fill-rule:nonzero;stroke:none"
             id="path134" /></g><g
           id="g136"
           transform="translate(251.3091,349.6051)"><path
             d="m 0,0 c -0.213,-1.71 -0.839,-4.053 -2.532,-6.425 0.775,0.703 1.467,1.491 2.07,2.366 1.284,1.857 2.091,4.004 2.344,6.214 C 1.618,2.391 0.935,2.972 -0.033,3.563 0.081,2.791 0.185,1.518 0,0"
             style="fill:#d22027;fill-opacity:1;fill-rule:nonzero;stroke:none"
             id="path138" /></g><g
           id="g140"
           transform="translate(349.6733,230.187)"><path
             d="M 0,0 C -1.181,1.293 -2.583,2.404 -3.313,2.721 -5.715,3.76 -7.796,4.272 -9.296,6.4 c -1.304,1.852 -2.159,4.106 -4.791,4.199 -2.311,0.085 -2.452,-2.406 -4.426,-3.273 -0.025,-0.012 -0.494,-2.001 -13.884,1.577 -3.587,0.959 -6.541,-0.182 -10.247,-0.492 -3.382,-0.282 -5.457,-1.792 -8.587,-2.97 -0.391,-0.145 -0.097,-0.575 -1.257,-0.559 -2.641,0.037 -7.699,10.073 -8.653,11.666 -0.853,1.424 -2.179,2.92 -3.415,4.424 0.684,4.647 -5.737,10.656 -1.488,17.666 1.441,2.37 3.531,4.122 5.522,6.008 1.294,1.225 2.487,2.95 3.945,3.948 1.635,1.116 4.06,1.721 5.948,2.324 2.065,0.661 4.06,1.538 6.085,2.213 2.687,0.898 5.284,2.15 7.72,3.583 1.151,0.676 3.386,1.835 3.402,3.349 0.016,1.349 -1.353,3.123 -1.915,4.317 -0.599,1.276 -1.079,2.594 -1.667,3.864 -1.543,3.343 -3.439,6.577 -4.838,9.975 -0.902,2.186 -0.72,4.711 -1.05,7.004 -0.185,1.295 -0.302,2.874 -0.722,4.111 -0.282,0.837 -1.723,2.793 -2.769,2.535 0.064,-0.888 0.82,-2.004 1.359,-2.695 -0.154,0.16 -0.283,0.31 -0.416,0.487 -0.86,1.147 -4.113,6.302 -5.712,3.203 -0.457,-0.889 -0.009,-2.383 0.374,-3.251 0.739,-1.677 1.854,-3.222 2.093,-5.096 0.169,-1.322 -0.412,-2.964 -1.918,-2.04 -0.657,0.402 -3.056,2.82 -3.163,1.316 -0.076,-1.064 1.305,-2.661 2.094,-3.234 1.115,-0.809 2.184,-1.797 3.331,-2.561 0.661,-0.443 1.318,-0.457 1.762,-1.135 0.361,-0.552 0.461,-1.328 0.763,-1.921 0.759,-1.481 1.576,-2.905 2.219,-4.431 1.07,-2.537 2.07,-5.534 2.201,-8.305 0.019,-0.397 0.145,-1.268 -0.193,-1.527 -0.279,-0.211 -1.381,0.064 -1.719,0.08 -1.499,0.07 -3.002,-0.022 -4.5,-0.066 -1.536,-0.049 -2.807,-0.615 -4.289,-0.863 -0.671,-0.113 -1.375,0.04 -2.047,-0.08 -0.575,-0.101 -1.444,-0.745 -1.928,-0.136 1.271,3.124 5.515,4.707 5.996,8.348 0.523,3.952 -1.242,7.897 -4.923,9.579 -2.253,1.031 -4.65,1.297 -6.848,0.214 -1.144,-0.562 -2.07,-0.49 -3.273,-0.393 -1.732,0.14 -1.293,-0.772 -1.951,-1.911 -1.07,-1.858 -5.134,-3.943 -2.948,-6.482 0.837,-0.975 1.893,-1.551 1.565,-2.737 -0.045,-0.164 -0.117,-0.343 -0.221,-0.534 -0.57,-1.054 -1.174,-2.175 -2.388,-2.431 -2.374,-0.501 -3.908,2.013 -6.12,2.294 -0.688,0.089 -1.42,0.085 -2.17,0.033 -1.672,0.574 -3.352,1.121 -5.092,1.572 -4.275,1.107 -7.857,2 -11.598,4.134 -3.97,2.269 -7.416,5.176 -11.438,7.332 -4.106,2.199 -7.49,3.186 -10.564,6.513 -3.011,3.256 -5.707,6.041 -10.482,7.512 -1.661,0.512 -4.5,1.633 -4.2,-0.506 0.148,-1.045 4.089,-2.933 4.972,-3.82 6.206,-6.229 12.522,-12.224 19.233,-18.23 5.79,-5.18 14.825,-6.762 19.932,-12.377 -0.007,-2.911 0.95,-5.573 1.31,-9.569 0.183,-2.008 0.167,-4.59 -0.294,-6.543 -0.57,-2.419 -1.196,-4.793 -1.333,-7.29 -0.161,-2.955 -0.068,-5.915 -0.192,-8.866 -0.123,-3.002 -0.093,-5.906 -0.088,-8.916 0.104,0.002 0.226,-0.002 0.337,-0.002 0.082,-0.944 0.184,-1.887 0.336,-2.829 0.297,-1.864 0.933,-3.631 1.239,-5.49 0.148,-0.895 0.224,-1.772 0.356,-2.675 0.264,-1.775 1.057,-3.182 1.69,-4.849 1.6,-4.218 2.519,-8.354 4.302,-12.487 1.383,-3.208 1.976,-6.722 5.511,-8.113 3.754,-1.48 14.447,-5.214 17.731,-6.429 3.795,-1.406 7.567,-2.902 11.317,-4.42 1.906,-1.006 3.855,-2.024 5.849,-2.754 1.025,-0.652 2,-1.373 2.877,-2.126 2.365,-2.029 3.793,-4.656 5.419,-7.328 1.257,-2.064 2.322,-4.606 4.048,-6.367 2.074,-2.11 3.463,-0.159 3.414,2.084 -0.021,1.06 -0.241,1.587 -0.317,2.656 0.229,2.439 -0.399,3.312 -1.183,4.73 -0.023,0.043 -0.041,0.091 -0.064,0.134 -0.225,0.809 -0.433,1.622 -0.593,2.443 -0.368,1.95 -0.422,3.858 -1.403,5.635 -1.646,2.976 -3.502,1.672 -6.578,2.508 -1.85,0.505 -4.052,1.557 -6.026,2.762 -4.021,2.451 -7.601,6.505 -11.434,9.344 -1.498,1.107 -3.253,2.794 -4.94,3.561 -2.601,1.183 -6.049,-0.632 -8.411,1.241 -1.014,0.805 -1.344,2.659 -1.82,3.834 -0.777,1.92 -1.5,3.816 -2.064,5.812 -0.806,2.871 -1.86,6.005 1.964,2.834 2.533,-2.093 8.691,-5.765 12.164,-7.325 3.055,-1.372 4.019,-0.37 6.657,1.06 1.184,0.644 2.668,1.017 3.934,1.515 2.092,0.829 4.13,1.628 6.219,2.437 6.215,2.405 12.162,2.364 18.715,1.994 4.223,-0.239 8.222,-1.391 12.419,-1.754 0.28,-0.023 0.641,-0.063 1.041,-0.105 0.694,-0.297 1.396,-0.591 2.057,-0.928 1.325,-0.671 4.987,-3.48 6.221,-1.455 C 2.437,-3.256 1.367,-1.505 0,0"
             style="fill:#d22027;fill-opacity:1;fill-rule:nonzero;stroke:none"
             id="path142" /></g></g></g><path
       d="m 241.489,138.65 h 82.339 v 37.268 h -82.339 z"
       style="fill:#ffffff;fill-opacity:1;fill-rule:nonzero;stroke:#ffffff;stroke-width:1;stroke-linecap:butt;stroke-linejoin:miter;stroke-miterlimit:4;stroke-dasharray:none;stroke-opacity:1"
       id="path144" /><g
       id="g146"><g
         id="g148"
         clip-path="url(#clipPath152)"><g
           id="g154"
           transform="translate(261.5745,146.7932)"><path
             d="m 0,0 v 1.11 h -4.477 v 23.495 c -2.294,-0.185 -4.588,-0.518 -6.882,-0.518 h -3.182 v -1.11 h 3.182 c 0.888,0 1.443,-0.296 1.443,-1.11 V 1.11 h -4.625 V 0 Z m 15.318,12.58 c 0,-0.814 -2.109,-2.738 -3.885,-2.738 -2.22,0 -3.034,1.258 -3.034,3.515 v 6.327 c 0,2.072 1.147,3.848 2.997,3.848 2.738,0 3.922,-1.184 3.922,-3.108 z M 5.106,-0.555 c 3.515,0.111 6.475,0.851 9.694,2.886 3.848,2.442 6.845,6.956 6.845,11.618 0,8.066 -6.179,10.656 -9.472,10.656 -4.699,0 -9.99,-3.293 -9.99,-8.51 0,-4.255 3.959,-7.622 8.103,-7.622 1.776,0 3.478,0.962 4.773,2.146 C 14.245,6.031 13.431,4.44 11.544,2.923 9.731,1.443 7.511,0.333 5.106,0.444 Z m 36.407,25.16 H 25.899 l -2.59,-8.214 h 1.11 c 1.295,3.7 0.962,3.441 2.923,3.441 H 38.183 L 32.078,9.953 c -0.925,-1.517 -3.293,-5.217 -3.293,-7.03 0,-2.183 1.036,-3.478 3.219,-3.478 1.887,0 3.515,0.777 3.515,2.96 0,0.851 -0.37,1.813 -0.74,2.738 -0.37,0.962 -0.777,1.924 -0.777,2.775 0,1.665 1.702,5.55 2.627,7.067 l 4.884,8.029 z M 59.495,0 V 1.11 H 55.018 V 24.605 C 52.724,24.42 50.43,24.087 48.136,24.087 h -3.182 v -1.11 h 3.182 c 0.888,0 1.443,-0.296 1.443,-1.11 V 1.11 H 44.954 V 0 Z"
             style="fill:#d22027;fill-opacity:1;fill-rule:nonzero;stroke:none"
             id="path156" /></g><g
           id="g158"
           transform="translate(126.7592,248.6829)"><path
             d="m 0,0 c -0.591,-1.676 -0.926,-3.486 -0.558,-5.224 0.873,-4.126 4.722,-6.942 8.849,-6.069 5.466,1.157 6.17,4.975 6.332,8.678 0.169,3.666 -0.321,7.231 2.792,7.89 2.28,0.483 5.218,-0.71 6.069,-4.728 0.774,-3.656 -1.652,-6.666 -4.776,-8.348 l 0.276,-1.303 7.023,1.486 -0.276,1.303 -1.767,1.555 c 0.837,1.766 1.043,3.473 0.644,5.356 C 23.359,6.496 18.435,8.139 14.2,7.242 10.001,6.353 8.458,4.173 7.977,1.802 7.605,-0.016 7.525,-3.21 7.518,-5.14 7.495,-6.998 7.238,-8.641 5.102,-9.093 2.713,-9.599 0.965,-7.057 0.543,-5.066 -0.124,-1.917 2.228,1.266 5.081,2.437 L 4.836,3.596 -1.571,2.239 -1.333,1.117 Z m 21.935,15.657 -1.108,-0.063 c 0.03,-0.517 0.486,-3.308 -0.438,-3.361 -0.332,-0.019 -1.422,0.252 -2.554,0.595 l -2.714,0.809 -0.434,7.572 5.686,2.327 0.162,-2.845 1.109,0.064 -0.67,11.71 -1.109,-0.064 0.127,-2.216 -23.597,-10.541 0.082,-1.441 23.549,-7.399 c 1.132,-0.343 1.188,-1.97 1.239,-2.857 l 1.108,0.064 z m -17.193,1.24 8.863,3.805 0.38,-6.649 z M 1.078,54.585 c -0.736,0.08 -1.003,0.704 -0.888,1.771 l 0.167,1.545 -1.103,0.119 -0.841,-7.761 1.104,-0.12 0.112,1.03 c 0.099,0.92 0.593,2.392 1.329,2.313 l 12.397,-1.342 -15.686,-8.76 -1.052,-9.711 1.104,-0.12 0.131,1.214 c 0.239,2.207 0.682,1.824 2.484,1.629 l 18.172,-1.967 c 1.067,-0.115 1.831,-0.273 1.769,-1.531 l -0.191,-1.766 1.104,-0.119 0.876,8.092 -1.104,0.12 -0.227,-2.097 C 20.562,36.212 20.139,35.737 19.219,35.837 L 0.348,37.88 23.94,51.254 24.032,52.1 Z m 22.817,3.965 -0.81,-2.654 1.062,-0.324 3.173,10.405 c 0.367,1.204 0.663,2.429 0.913,3.629 0.989,4.766 -0.715,11.358 -8.713,13.797 -6.229,1.899 -13.122,-1.299 -15,-7.457 L 0.506,62.781 1.567,62.457 2.377,65.111 Z M 4.19,71.057 5.215,74.419 c 0.863,2.832 1.842,3.887 3.534,4.106 0.688,0.1 1.727,0.208 4.523,-0.644 l 8.317,-2.536 c 1.309,-0.399 2.456,-0.826 3.385,-1.458 1.798,-1.206 2.698,-2.95 1.759,-6.029 l -1.025,-3.362 z m 17.691,38.281 c -0.656,0.342 -0.678,1.02 -0.183,1.972 l 0.718,1.379 -0.985,0.512 -3.605,-6.925 0.985,-0.512 0.478,0.919 c 0.427,0.82 1.423,2.012 2.08,1.67 l 11.06,-5.758 -17.798,-2.456 -4.51,-8.664 0.984,-0.513 0.564,1.083 c 1.025,1.97 1.298,1.452 2.906,0.615 l 16.213,-8.44 c 0.952,-0.496 1.607,-0.92 1.091,-2.07 l -0.82,-1.576 0.985,-0.512 3.759,7.22 -0.985,0.513 -0.974,-1.871 c -0.493,-0.786 -1.06,-1.075 -1.88,-0.648 l -16.837,8.765 26.84,3.881 0.393,0.755 z m 34.826,9.284 -6.324,5.071 -0.693,-0.915 c 2.818,-3.388 4.345,-5.845 0.881,-10.416 l -2.189,-2.89 -8.671,6.569 c 2.19,2.891 3.737,2.972 6.881,1.24 l 0.738,0.973 -8.376,6.346 -0.737,-0.974 c 2.266,-2.645 2.652,-3.912 0.462,-6.802 l -8.228,6.234 2.101,2.772 c 2.234,2.949 4.309,3.42 8.579,2.133 l 0.76,1.003 -5.442,3.845 -12.223,-16.131 0.885,-0.671 1.586,2.094 17.931,-13.585 -1.788,-2.36 0.885,-0.67 z m -6.704,26.007 c -1.729,-0.408 -3.434,-1.104 -4.697,-2.353 -3.001,-2.965 -3.291,-7.725 -0.326,-10.725 3.927,-3.974 7.52,-2.504 10.723,-0.639 3.177,1.839 5.912,4.177 8.149,1.914 1.638,-1.658 2.221,-4.775 -0.7,-7.662 -2.658,-2.627 -6.502,-2.211 -9.605,-0.492 l -0.947,-0.937 5.045,-5.105 0.947,0.936 0.354,2.326 c 1.938,0.25 3.486,1 4.855,2.352 4.289,4.239 3.011,9.27 -0.032,12.35 -3.016,3.053 -5.684,3.173 -7.94,2.297 -1.73,-0.67 -4.461,-2.328 -6.09,-3.365 -1.575,-0.985 -3.097,-1.656 -4.631,-0.103 -1.717,1.737 -0.522,4.581 0.925,6.012 2.29,2.262 6.239,2.003 8.766,0.235 l 0.843,0.833 -4.604,4.658 -0.816,-0.806 z m 12.12,10.139 1.768,1.149 21.391,-14.91 0.962,0.625 -5.051,20.46 c -1.02,4.148 -0.83,4.536 -0.086,5.02 l 1.272,0.827 -0.605,0.93 -6.483,-4.215 0.605,-0.931 1.054,0.686 c 1.737,1.129 2.144,0.776 2.212,0.467 l 3.659,-14.789 -13.47,9.38 2.388,1.553 -0.605,0.931 -9.616,-6.253 z m 33.428,10.423 c -2.589,6.216 -1.997,8.066 1.76,9.631 3.757,1.565 5.522,0.697 8.111,-5.52 l 2.389,-5.738 c 2.959,-7.105 3.255,-8.585 -1.424,-10.534 -4.68,-1.948 -5.488,-0.682 -8.447,6.423 z m 1.333,10.656 c -4.44,-1.85 -10.045,-8.793 -6.816,-16.547 2.802,-6.728 10.085,-10.068 16.745,-7.294 6.695,2.788 9.454,10.31 6.652,17.039 -3.229,7.753 -12.106,8.665 -16.581,6.802 m 41.523,-14.398 -1.416,7.987 -1.011,-0.227 c -0.348,-3.681 -1.101,-7.416 -5.18,-8.333 l -4.043,-0.909 -4.935,21.948 3.249,0.731 -0.244,1.083 -11.768,-2.646 0.244,-1.083 2.454,0.552 4.935,-21.948 -2.455,-0.552 0.244,-1.083 z m 19.671,1.344 -0.299,8.106 -1.033,-0.086 c -0.853,-3.597 -2.115,-7.191 -6.282,-7.536 l -4.13,-0.342 -1.854,22.42 3.319,0.274 -0.092,1.107 -12.021,-0.995 0.092,-1.106 2.507,0.207 1.854,-22.419 -2.507,-0.207 0.091,-1.107 z m 21.395,-1.789 0.787,8.068 -1.145,0.08 c -1.296,-4.212 -2.518,-6.834 -8.239,-6.434 l -3.617,0.253 0.759,10.852 c 3.617,-0.253 4.531,-1.504 4.8,-5.084 l 1.218,-0.085 0.734,10.482 -1.218,0.086 c -0.976,-3.344 -1.826,-4.361 -5.443,-4.108 l 0.72,10.298 3.47,-0.242 c 3.691,-0.259 5.219,-1.738 6.478,-6.017 l 1.254,-0.088 0.244,6.659 -20.19,1.413 -0.077,-1.108 2.62,-0.183 -1.57,-22.441 -2.952,0.206 -0.078,-1.107 z m 4.678,22.847 2.195,-0.523 4.024,-13.775 -2.321,-9.754 -3.024,0.719 -0.257,-1.08 12.238,-2.912 0.257,1.079 -3.167,0.754 2.535,10.655 6.954,8.119 c 1.364,1.577 1.802,1.663 2.81,1.423 l 1.332,-0.317 0.257,1.08 -7.595,1.808 -0.257,-1.08 2.124,-0.506 c 0.756,-0.179 1.202,-0.704 0.785,-1.175 l -6.67,-7.731 -3.438,11.125 2.7,-0.642 0.257,1.08 -11.482,2.733 z m 25.908,-31.209 4.437,10.296 1.461,-0.63 c 4.825,-2.079 4.628,-3.283 2.857,-7.395 -1.04,-2.412 -1.721,-5.302 -4.745,-3.999 z m 8.903,20.66 2.243,-0.967 c 3.465,-1.493 3.47,-1.858 1.727,-5.901 -1.962,-4.553 -2.934,-4.658 -6.536,-3.106 l -1.461,0.629 z m -5.91,-23.158 c 1.835,-0.791 4.092,-1.723 6.157,-1.606 2.43,0.122 4.812,1.069 5.866,3.516 1.772,4.111 -1.991,7.626 -5.311,9.178 l 0.029,0.068 c 5.59,-1.24 8.236,0.319 9.179,2.975 1.299,3.67 -2.095,6.825 -5.052,8.099 l -12.64,5.447 -0.439,-1.02 2.412,-1.039 -8.902,-20.66 -2.311,0.996 -0.439,-1.019 z m 15.394,-8.255 0.605,0.931 c -0.434,0.282 -2.953,1.567 -2.449,2.342 0.181,0.279 1.046,0.997 1.992,1.706 l 2.259,1.709 6.359,-4.135 -1.492,-5.959 -2.389,1.553 -0.605,-0.93 9.833,-6.394 0.605,0.93 -1.861,1.211 5.478,25.257 -1.209,0.787 -19.907,-14.596 c -0.946,-0.709 -2.291,0.21 -3.035,0.694 l -0.605,-0.931 z m 11.179,13.121 -2.181,-9.395 -5.583,3.631 z m 16.51,-35.226 5.69,5.78 -0.77,0.693 c -3.203,-1.849 -6.683,-3.398 -9.793,-0.604 l -3.083,2.77 15.033,16.735 2.477,-2.225 0.742,0.826 -8.973,8.06 -0.742,-0.826 1.872,-1.681 -15.033,-16.736 -1.872,1.682 -0.742,-0.826 z m 12.465,-15.323 6.455,4.912 -0.664,0.795 c -3.433,-1.374 -7.098,-2.412 -9.779,0.796 l -2.658,3.18 17.262,14.426 2.136,-2.555 0.851,0.711 -7.734,9.256 -0.852,-0.712 1.613,-1.931 -17.262,-14.425 -1.613,1.93 -0.852,-0.711 z m 28.144,-1.5 0.914,-1.566 c 0.373,-0.639 0.695,-1.264 0.312,-1.488 -0.032,-0.019 -0.432,0.005 -0.988,0.151 l -10.548,2.583 c -0.607,0.16 -1.326,0.511 -1.869,0.194 -0.416,-0.243 -0.727,-0.81 -0.962,-1.289 l -5.466,-11.332 -1.511,2.588 -0.959,-0.559 6.566,-11.248 0.959,0.56 -1.343,2.3 7.942,16.632 9.029,-2.183 c 0.538,-0.115 0.815,-0.296 1.095,-0.775 l 1.362,-2.333 0.958,0.56 -4.533,7.765 z m -22.066,-9.025 0.959,0.56 -1.567,2.684 19.428,11.341 1.604,-2.748 0.959,0.56 -6.137,10.513 -0.958,-0.56 1.399,-2.397 -19.429,-11.341 -1.436,2.461 -0.958,-0.56 z m 13.513,-31.049 7.719,2.491 -0.363,0.971 c -3.694,-0.157 -7.496,0.081 -8.96,3.997 l -1.451,3.882 21.072,7.877 1.166,-3.119 1.04,0.389 -4.224,11.298 -1.04,-0.389 0.881,-2.356 -21.072,-7.878 -0.881,2.357 -1.039,-0.389 z m 22.897,5.031 0.57,-2.867 -15.75,-3.129 c -5.88,-1.167 -7.307,-4.808 -6.124,-10.76 0.821,-4.137 2.074,-6.076 3.829,-7.123 1.631,-0.997 3.547,-0.767 5.398,-0.399 l 14.916,2.962 c 0.725,0.145 1.4,-0.023 1.566,-0.858 l 0.432,-2.177 1.089,0.216 -1.521,7.657 -1.089,-0.216 0.325,-1.633 c 0.209,-1.052 -0.293,-1.756 -1.019,-1.9 l -12.193,-2.422 c -2.976,-0.591 -5.771,-1.146 -6.844,-0.492 -1.204,0.553 -2.9,1.876 -3.433,4.751 -0.778,4.108 0.725,5.274 4.064,5.937 l 17.565,3.489 0.605,-3.048 1.089,0.216 -2.386,12.012 z m -17.475,-37.878 11.209,0.214 0.03,-1.591 c 0.1,-5.253 -1.078,-5.571 -5.554,-5.657 -2.627,-0.05 -5.539,-0.623 -5.602,2.669 z m 22.491,0.429 0.047,-2.442 c 0.072,-3.773 -0.258,-3.927 -4.66,-4.011 -4.957,-0.095 -5.455,0.747 -5.529,4.668 l -0.031,1.591 z m -23.53,-4.186 c 0.038,-1.998 0.122,-4.439 1.082,-6.271 1.114,-2.162 2.961,-3.94 5.625,-3.889 4.476,0.085 6.122,4.964 6.164,8.629 l 0.073,0.001 c 1.18,-5.602 3.694,-7.368 6.502,-7.129 3.879,0.333 5.349,4.728 5.288,7.946 l -0.262,13.761 -1.11,-0.021 0.05,-2.626 -22.492,-0.429 -0.048,2.516 -1.11,-0.022 z m -0.517,-20.564 11.047,-1.907 -0.27,-1.568 c -0.894,-5.177 -2.111,-5.267 -6.523,-4.506 -2.589,0.447 -5.557,0.434 -4.997,3.679 z m 22.168,-3.827 -0.416,-2.406 c -0.642,-3.719 -0.995,-3.808 -5.334,-3.059 -4.886,0.843 -5.215,1.764 -4.548,5.628 l 0.271,1.568 z m -23.898,0.333 c -0.34,-1.968 -0.719,-4.381 -0.122,-6.362 0.686,-2.333 2.164,-4.428 4.79,-4.881 4.411,-0.762 6.949,3.719 7.682,7.309 l 0.073,-0.012 c 0.1,-5.725 2.235,-7.933 5.037,-8.229 3.873,-0.406 6.147,3.632 6.695,6.804 l 2.341,13.564 -1.094,0.189 -0.447,-2.589 -22.168,3.827 0.428,2.479 -1.094,0.189 z"
             style="fill:#d22027;fill-opacity:1;fill-rule:nonzero;stroke:none"
             id="path160" /></g></g></g></g></svg>
