<?xml version="1.0" encoding="UTF-8"?>
<svg width="1071px" height="513px" viewBox="0 0 1071 513" version="1.1" xmlns="http://www.w3.org/2000/svg" xmlns:xlink="http://www.w3.org/1999/xlink">
    <!-- Generator: Sketch 48.1 (47250) - http://www.bohemiancoding.com/sketch -->
    <title>court-with-net</title>
    <desc>Created with Sketch.</desc>
    <defs>
        <linearGradient x1="48.6995775%" y1="1.30042251%" x2="48.6995775%" y2="98.6995775%" id="linearGradient-1">
            <stop stop-color="#E214AD" offset="0%"></stop>
            <stop stop-color="#A7107F" offset="100%"></stop>
        </linearGradient>
    </defs>
    <g id="lineup" stroke="none" stroke-width="1" fill="none" fill-rule="evenodd" transform="translate(-35.000000, -83.000000)">
        <g id="court-with-net" transform="translate(38.000000, 86.000000)">
            <g id="net" transform="translate(254.000000, 33.000000)"></g>
            <g id="court">
                <polygon id="Path-2" stroke="#222B38" stroke-width="6" fill="#222B38" stroke-linejoin="round" points="0 506.367433 282.264446 0 767.773566 0 1064.14034 506.367433"></polygon>
                <polygon id="Path-7" stroke="#FFFFFF" stroke-width="3" fill="#0288C7" points="245.726718 355.644503 362.264312 29.0652116 694.251549 29.0652116 818.283868 355.644503"></polygon>
                <g id="Group" transform="translate(772.000000, 65.500000) scale(-1, 1) translate(-772.000000, -65.500000) translate(752.000000, 35.000000)" stroke="#F6F9FC" stroke-linecap="square">
                    <path d="M5,61 L39.0708984,50.3455137" id="Line-2"></path>
                    <path d="M0,0 L39.098933,4.59295352" id="Line"></path>
                </g>
                <g id="Group-Copy" transform="translate(259.000000, 35.000000)" stroke="#F6F9FC" stroke-linecap="square">
                    <path d="M5.5,59.5 L35.5,50.5" id="Line-2"></path>
                    <path d="M0.5,0.5 L35.5,4.5" id="Line"></path>
                </g>
                <rect id="Rectangle" stroke="url(#linearGradient-1)" stroke-width="2" x="295" y="40" width="458" height="45"></rect>
                <path d="M261.342189,151.856554 C260.918178,149.257003 258.470781,109.638152 254,33 L261.342189,33 L272.144795,151.856554 C268.200986,154.812273 264.600117,154.812273 261.342189,151.856554 Z" id="Path-8" fill="#F6F9FC"></path>
                <path d="M786.342189,151.856554 C785.918178,149.257003 783.470781,109.638152 779,33 L786.342189,33 L797.144795,151.856554 C793.200986,154.812273 789.600117,154.812273 786.342189,151.856554 Z" id="Path-8-Copy-2" fill="#F6F9FC" transform="translate(788.072397, 93.536672) scale(-1, 1) translate(-788.072397, -93.536672) "></path>
                <path d="M336.5,103.5 L722.532382,103.5" id="Line-5" stroke="#FFFFFF" stroke-width="2" stroke-linecap="square"></path>
                <path d="M319.5,149.5 L740.542753,149.5" id="Line-4" stroke="#FFFFFF" stroke-width="2" stroke-linecap="square"></path>
                <path d="M298.5,205.5 L761.538875,205.5" id="Line-3" stroke="#FFFFFF" stroke-width="2" stroke-linecap="square"></path>
            </g>
        </g>
    </g>
</svg>
